<svg width="103" height="157" viewBox="0 0 103 157" fill="none" xmlns="http://www.w3.org/2000/svg">
<g filter="url(#filter0_d)">
<rect x="8.69922" y="5" width="81.6011" height="137" rx="8" fill="#CFD2DD"/>
<rect x="10.1963" y="7.2459" width="78.6066" height="132.508" rx="8" fill="#F5F8FF"/>
<rect x="30.4092" y="134.514" width="38.1803" height="1.49727" rx="0.748634" fill="#504DD2"/>
<rect x="34.1523" y="10.9891" width="30.694" height="1.49727" rx="0.748634" fill="#504DD2"/>
<circle cx="49.7158" cy="73.7159" r="18.7158" fill="#504DD2"/>
<path d="M50.7747 74.3169C49.4411 75.5712 47.896 76.7716 47.2852 76.1968C46.4115 75.3746 45.8724 74.6579 43.9448 76.1159C42.018 77.5732 43.4983 78.5452 44.3449 79.3412C45.3222 80.2609 48.9651 79.3904 52.5659 76.0025C56.1658 72.6139 57.0883 69.1856 56.1102 68.2659C55.2635 67.4683 54.2357 66.0761 52.6872 67.8893C51.1379 69.7026 51.8986 70.21 52.7739 71.033C53.3822 71.6078 52.1075 73.0619 50.7747 74.3169Z" fill="#FCFCFC"/>
</g>
<defs>
<filter id="filter0_d" x="0.699219" y="0" width="101.601" height="157" filterUnits="userSpaceOnUse" color-interpolation-filters="sRGB">
<feFlood flood-opacity="0" result="BackgroundImageFix"/>
<feColorMatrix in="SourceAlpha" type="matrix" values="0 0 0 0 0 0 0 0 0 0 0 0 0 0 0 0 0 0 127 0"/>
<feOffset dx="2" dy="5"/>
<feGaussianBlur stdDeviation="5"/>
<feColorMatrix type="matrix" values="0 0 0 0 0 0 0 0 0 0 0 0 0 0 0 0 0 0 0.15 0"/>
<feBlend mode="normal" in2="BackgroundImageFix" result="effect1_dropShadow"/>
<feBlend mode="normal" in="SourceGraphic" in2="effect1_dropShadow" result="shape"/>
</filter>
</defs>
</svg>
