<svg width="627" height="391" viewBox="0 0 627 391" fill="none" xmlns="http://www.w3.org/2000/svg">
<path d="M400.604 79.9272H438.502V95.1982C438.502 99.6165 434.92 103.198 430.502 103.198H408.604C404.185 103.198 400.604 99.6165 400.604 95.1982V79.9272Z" fill="#555555"/>
<path d="M404.844 99.0177H433.741V102.085C433.741 106.503 430.159 110.085 425.741 110.085H412.844C408.425 110.085 404.844 106.503 404.844 102.085V99.0177Z" fill="#555555"/>
<path d="M419.6 0C444.727 0 465.097 20.3697 465.097 45.4971H419.6V0Z" fill="#49D8CF"/>
<path d="M374.102 45.4971C374.102 20.3697 394.471 0 419.599 0V45.4971H374.102Z" fill="#5CFFF5"/>
<circle cx="429.809" cy="22.7485" r="6.41138" transform="rotate(90 429.809 22.7485)" fill="#5CFFF5"/>
<rect x="427.197" y="18.9967" width="7.59868" height="7.59868" transform="rotate(90 427.197 18.9967)" fill="#5CFFF5"/>
<path d="M374.102 45.4969H419.599V90.994C394.471 90.994 374.102 70.6243 374.102 45.4969Z" fill="#49D8CF"/>
<circle cx="396.851" cy="35.2863" r="6.41138" fill="#49D8CF"/>
<rect x="393.1" y="37.8982" width="7.59868" height="7.59868" fill="#49D8CF"/>
<path d="M419.6 45.4971H465.097C465.097 70.6244 444.727 90.9941 419.6 90.9941V45.4971Z" fill="#5CFFF5"/>
<circle cx="409.39" cy="68.2456" r="6.41138" transform="rotate(-90 409.39 68.2456)" fill="#5CFFF5"/>
<rect x="412.002" y="71.9974" width="7.59868" height="7.59868" transform="rotate(-90 412.002 71.9974)" fill="#5CFFF5"/>
<circle cx="442.348" cy="55.7078" r="6.41138" transform="rotate(-180 442.348 55.7078)" fill="#49D8CF"/>
<rect x="446.1" y="53.0958" width="7.59868" height="7.59868" transform="rotate(-180 446.1 53.0958)" fill="#49D8CF"/>
<line y1="-1" x2="205.817" y2="-1" transform="matrix(0.866044 0.499967 -0.866044 0.499967 123.902 188.466)" stroke="#5CFFF5" stroke-width="2"/>
<line y1="-1" x2="205.817" y2="-1" transform="matrix(0.866044 0.499967 -0.866044 0.499967 319.539 75.525)" stroke="#5CFFF5" stroke-width="2"/>
<line y1="-1" x2="106.422" y2="-1" transform="matrix(0.866044 0.499967 -0.866044 0.499967 329.104 275.807)" stroke="#5CFFF5" stroke-width="2"/>
<line y1="-1" x2="40.1594" y2="-1" transform="matrix(0.866044 0.499967 -0.866044 0.499967 374.316 249.705)" stroke="#5CFFF5" stroke-width="2"/>
<line y1="-1" x2="100.398" y2="-1" transform="matrix(0.866044 0.499967 -0.866044 0.499967 399.967 174.662)" stroke="#5CFFF5" stroke-width="2"/>
<line y1="-1" x2="62.247" y2="-1" transform="matrix(0.866044 0.499967 -0.866044 0.499967 153.465 140.278)" stroke="#5CFFF5" stroke-width="2"/>
<line y1="-1" x2="56.2231" y2="-1" transform="matrix(0.866044 0.499967 -0.866044 0.499967 233.023 125.47)" stroke="#5CFFF5" stroke-width="2"/>
<line y1="-1" x2="225.896" y2="-1" transform="matrix(-0.866044 0.499967 -0.866044 -0.499967 497.785 178.427)" stroke="#5CFFF5" stroke-width="2"/>
<line y1="-1" x2="80.8207" y2="-1" transform="matrix(-0.866044 0.499967 -0.866044 -0.499967 491.264 288.607)" stroke="#5CFFF5" stroke-width="2"/>
<line y1="-1" x2="225.896" y2="-1" transform="matrix(-0.866044 0.499967 -0.866044 -0.499967 319.539 75.525)" stroke="#5CFFF5" stroke-width="2"/>
<line y1="-1" x2="31.1235" y2="-1" transform="matrix(-0.866045 0.499967 -0.866044 -0.499968 150.857 204.026)" stroke="#5CFFF5" stroke-width="2"/>
<line x1="418.582" y1="109.909" x2="418.582" y2="131.915" stroke="#5CFFF5" stroke-width="2"/>
<rect width="40.9631" height="80.3187" rx="8" transform="matrix(0.866044 0.499967 -0.866044 0.499967 234.328 239.164)" fill="#4B4B4B"/>
<rect width="39.4599" height="77.6853" rx="8" transform="matrix(0.866044 0.499967 -0.866044 0.499967 233.84 240.198)" fill="#282828"/>
<rect width="19.1662" height="0.8778" rx="0.4389" transform="matrix(0.866044 0.499967 -0.866044 0.499967 178.008 282.575)" fill="black"/>
<rect width="15.4081" height="0.8778" rx="0.4389" transform="matrix(0.866044 0.499967 -0.866044 0.499967 242.354 247.307)" fill="black"/>
<path d="M108.566 232.819C109.209 232.528 109.835 232.227 110.426 231.885C111.018 231.544 111.539 231.183 112.044 230.811L114.983 232.508C114.565 232.909 114.07 233.296 113.47 233.642C112.87 233.988 112.2 234.275 111.505 234.516L108.566 232.819ZM102.192 234.721C103.679 234.465 105.122 234.094 106.488 233.627L109.053 235.108C106.76 235.459 104.324 235.322 102.192 234.721ZM106.809 231.805L102.74 229.456C103.227 229.074 103.749 228.713 104.34 228.372C104.931 228.03 105.566 227.724 106.218 227.448L110.287 229.797C109.8 230.169 109.279 230.54 108.687 230.881C108.096 231.223 107.461 231.519 106.809 231.805ZM99.5925 233.622C99.9142 232.603 100.488 231.599 101.375 230.676L104.696 232.593C103.097 233.105 101.358 233.436 99.5925 233.622ZM106.514 225.611L103.975 224.145C106.263 223.787 108.699 223.922 110.826 224.527C109.34 224.783 107.905 225.159 106.514 225.611ZM97.0188 228.161L99.5577 229.626C98.7752 230.43 98.1231 231.258 97.6796 232.116C96.6423 230.887 96.4076 229.482 97.0188 228.161ZM98.0448 226.745C98.4622 226.344 98.9578 225.957 99.5577 225.611C100.158 225.264 100.827 224.978 101.523 224.737L104.462 226.434C103.818 226.725 103.192 227.026 102.601 227.368C102.01 227.709 101.488 228.07 100.984 228.442L98.0448 226.745ZM113.444 225.626C113.122 226.645 112.539 227.654 111.652 228.577L108.331 226.66C109.931 226.148 111.678 225.812 113.444 225.626ZM116.009 231.092L113.444 229.611C114.248 228.833 114.885 228 115.339 227.132C116.391 228.372 116.617 229.777 116.009 231.092ZM115.209 224.607C110.4 221.831 102.601 221.846 97.8187 224.607C95.5127 225.938 94.2172 227.744 94.2172 229.626C94.2172 230.559 94.5352 231.482 95.1532 232.343C95.7711 233.204 96.6769 233.987 97.8187 234.646C100.125 235.977 103.252 236.725 106.514 236.725C109.775 236.725 112.903 235.977 115.209 234.646C116.35 233.987 117.256 233.204 117.874 232.343C118.492 231.482 118.81 230.559 118.81 229.626C118.81 228.694 118.492 227.771 117.874 226.91C117.256 226.049 116.35 225.266 115.209 224.607Z" fill="#5CFFF5"/>
<path d="M515.174 280.826L512.409 279.23C513.053 278.437 512.827 277.463 511.696 276.811C510.566 276.158 508.879 276.028 507.505 276.399L504.74 274.803C504.453 274.637 503.088 273.749 504.74 272.795L505.61 272.293C507.201 271.374 508.688 272.062 509.088 272.293L517.939 277.403C517.296 278.196 517.522 279.17 518.652 279.822C519.344 280.222 520.282 280.446 521.261 280.446C522.239 280.446 523.177 280.222 523.869 279.822C524.561 279.423 524.95 278.881 524.95 278.317C524.95 277.752 524.561 277.21 523.869 276.811C522.739 276.158 521.052 276.028 519.678 276.399L510.827 271.289C509.427 270.481 506.427 269.813 503.871 271.289L503.001 271.791C500.445 273.267 501.602 274.999 503.001 275.807L505.766 277.403C505.123 278.196 505.349 279.17 506.479 279.822C507.61 280.475 509.297 280.605 510.67 280.234L513.435 281.83C513.722 281.996 515.087 282.884 513.435 283.838L512.566 284.34C510.975 285.259 509.488 284.571 509.088 284.34L500.236 279.23C500.88 278.437 500.654 277.463 499.523 276.811C498.832 276.411 497.893 276.187 496.915 276.187C495.937 276.187 494.998 276.411 494.306 276.811C493.615 277.21 493.226 277.752 493.226 278.317C493.226 278.881 493.615 279.423 494.306 279.822C495.437 280.475 497.124 280.605 498.497 280.234L507.349 285.344C508.749 286.152 511.757 286.815 514.305 285.344L515.174 284.842C517.722 283.371 516.574 281.634 515.174 280.826ZM522.13 277.815C522.361 277.948 522.49 278.128 522.49 278.317C522.49 278.505 522.361 278.685 522.13 278.818C521.9 278.952 521.587 279.026 521.261 279.026C520.935 279.026 520.622 278.952 520.391 278.818C520.161 278.685 520.031 278.505 520.031 278.317C520.031 278.128 520.161 277.948 520.391 277.815C520.622 277.681 520.935 277.607 521.261 277.607C521.587 277.607 521.9 277.681 522.13 277.815ZM496.045 278.818C495.815 278.685 495.685 278.505 495.685 278.317C495.685 278.128 495.815 277.948 496.045 277.815C496.276 277.681 496.589 277.607 496.915 277.607C497.241 277.607 497.554 277.681 497.784 277.815C498.015 277.948 498.145 278.128 498.145 278.317C498.145 278.505 498.015 278.685 497.784 278.818C497.554 278.952 497.241 279.026 496.915 279.026C496.589 279.026 496.276 278.952 496.045 278.818Z" fill="#5CFFF5"/>
<path d="M216.442 270.069C217.967 270.95 218.723 272.111 218.714 273.274L216.093 273.281C216.1 272.506 215.596 271.732 214.578 271.145C213.561 270.558 212.221 270.267 210.878 270.271L210.891 268.757C211.924 268.753 212.946 268.867 213.899 269.093C214.851 269.318 215.715 269.65 216.442 270.069ZM210.918 265.729C214.42 265.718 217.705 266.496 220.168 267.918C222.631 269.34 223.978 271.237 223.961 273.258L221.339 273.266C221.353 271.649 220.276 270.132 218.305 268.994C216.334 267.856 213.706 267.234 210.905 267.242L210.918 265.729ZM227.895 269.261C228.774 270.525 229.219 271.877 229.205 273.244L226.583 273.251C226.603 270.826 224.988 268.55 222.032 266.843C219.076 265.137 215.134 264.203 210.932 264.216L210.945 262.703C213.356 262.694 215.741 262.96 217.964 263.486C220.186 264.012 222.202 264.788 223.896 265.768C225.639 266.774 226.985 267.949 227.897 269.262L227.895 269.261ZM210.861 272.226C211.108 272.083 211.442 272.003 211.79 272.002C212.138 272.001 212.471 272.08 212.715 272.221C212.96 272.362 213.096 272.554 213.094 272.755C213.093 272.955 212.953 273.148 212.706 273.291C212.459 273.434 212.125 273.514 211.777 273.515C211.429 273.516 211.097 273.438 210.852 273.296C210.607 273.155 210.471 272.963 210.473 272.762C210.474 272.562 210.614 272.369 210.861 272.226Z" fill="#5CFFF5"/>
<path d="M143.623 134.073C143.936 133.933 144.24 133.787 144.536 133.616C144.831 133.446 145.084 133.27 145.327 133.089L148.596 133.32C148.892 133.34 149.17 133.23 149.257 133.059L150.527 130.319C150.614 130.148 150.448 129.972 150.188 129.902L147.153 129.154C147.049 128.692 146.849 128.245 146.536 127.814L148.509 126.293C148.597 126.225 148.64 126.142 148.628 126.058C148.617 125.974 148.553 125.895 148.449 125.836L144.971 123.828C144.753 123.703 144.414 123.688 144.179 123.793L141.545 124.932C140.797 124.752 140.014 124.641 139.223 124.576L137.928 122.824C137.806 122.664 137.502 122.578 137.206 122.629L132.459 123.361C132.154 123.407 131.972 123.572 132.006 123.743L132.406 125.63C132.093 125.771 131.78 125.921 131.493 126.087C131.206 126.253 130.946 126.433 130.702 126.614L127.433 126.383C127.137 126.363 126.859 126.474 126.772 126.644L125.503 129.385C125.416 129.556 125.581 129.731 125.842 129.801L128.876 130.549C128.981 131.011 129.181 131.458 129.494 131.89L127.52 133.411C127.337 133.546 127.363 133.742 127.581 133.867L131.059 135.875C131.276 136.001 131.615 136.016 131.85 135.91L134.484 134.771C135.232 134.952 136.015 135.062 136.806 135.127L138.102 136.879C138.223 137.04 138.528 137.125 138.823 137.075L143.571 136.342C143.866 136.292 144.058 136.131 144.023 135.961L143.623 134.073ZM134.971 131.609C133.293 130.64 133.293 129.064 134.971 128.095C136.65 127.126 139.38 127.126 141.058 128.095C142.736 129.064 142.736 130.64 141.058 131.609C139.38 132.577 136.65 132.577 134.971 131.609Z" fill="#5CFFF5"/>
<path d="M520.393 234.144L506.481 226.113C505.525 225.561 503.96 225.561 503.003 226.113L487.352 235.148L494.308 235.148L506.481 242.175C507.438 242.728 509.003 242.728 509.959 242.175L520.393 236.152C521.35 235.6 521.35 234.696 520.393 234.144Z" fill="#5CFFF5"/>
<path fill-rule="evenodd" clip-rule="evenodd" d="M300.518 163.129L300.825 163.306C303.465 162.406 306.923 162.61 309.192 163.92L311.627 165.325C312.918 166.071 313.644 167.082 313.644 168.136C313.644 169.191 312.918 170.202 311.627 170.947C310.336 171.693 308.584 172.112 306.758 172.112C304.932 172.112 303.18 171.693 301.889 170.947L299.454 169.542C298.375 168.919 297.684 168.106 297.492 167.232C297.299 166.357 297.615 165.471 298.39 164.711L298.083 164.534C296.768 164.981 295.232 165.164 293.718 165.053C292.203 164.942 290.796 164.543 289.716 163.92L287.281 162.514C285.99 161.769 285.264 160.758 285.264 159.703C285.264 158.649 285.99 157.638 287.281 156.893C288.573 156.147 290.324 155.728 292.15 155.728C293.977 155.728 295.728 156.147 297.02 156.893L299.454 158.298C300.534 158.921 301.224 159.734 301.416 160.608C301.609 161.483 301.293 162.369 300.518 163.129ZM297.895 161.658C298.064 161.317 298.073 160.955 297.919 160.612C297.765 160.268 297.454 159.954 297.02 159.703L294.585 158.298C293.939 157.925 293.064 157.716 292.15 157.716C291.237 157.716 290.361 157.925 289.716 158.298C289.07 158.671 288.707 159.176 288.707 159.703C288.707 160.231 289.07 160.736 289.716 161.109L292.15 162.514C292.585 162.766 293.128 162.945 293.724 163.034C294.319 163.123 294.945 163.118 295.536 163.02C295.34 162.83 295.26 162.608 295.308 162.389C295.355 162.17 295.528 161.966 295.799 161.81C296.069 161.653 296.422 161.554 296.802 161.526C297.181 161.499 297.566 161.545 297.895 161.658ZM300.708 166.007C300.539 166.348 300.531 166.709 300.685 167.053C300.839 167.396 301.15 167.71 301.584 167.961L304.019 169.366C304.665 169.739 305.54 169.948 306.454 169.948C307.367 169.948 308.242 169.739 308.888 169.366C309.534 168.993 309.897 168.488 309.897 167.961C309.897 167.434 309.534 166.928 308.888 166.555L306.454 165.15C306.019 164.899 305.476 164.719 304.88 164.631C304.285 164.542 303.659 164.547 303.068 164.644C303.264 164.834 303.344 165.056 303.296 165.276C303.248 165.495 303.076 165.698 302.805 165.855C302.535 166.011 302.182 166.11 301.802 166.138C301.423 166.165 301.038 166.119 300.709 166.006L300.708 166.007Z" fill="#5CFFF5"/>
<path d="M233.459 184.952C234.418 184.398 234.418 183.498 233.459 182.944L232.59 182.442L235.198 180.936C237.595 179.552 237.595 177.301 235.198 175.917C232.801 174.533 228.9 174.533 226.503 175.917L223.895 177.423L223.025 176.921C222.066 176.367 220.506 176.367 219.547 176.921L212.591 180.936C211.632 181.49 211.632 182.391 212.591 182.944L223.025 188.968C223.984 189.521 225.544 189.521 226.503 188.968L233.459 184.952ZM228.242 176.921C229.68 176.09 232.021 176.09 233.459 176.921C234.897 177.751 234.897 179.102 233.459 179.932L230.851 181.438L225.634 178.427L228.242 176.921Z" fill="#5CFFF5"/>
<path d="M418.351 279.833L421.004 279.663L420.245 275.718L427.077 276.157L427.372 274.625L418.882 274.081C418.683 274.068 418.481 274.081 418.292 274.119C418.104 274.158 417.932 274.22 417.791 274.301C417.649 274.383 417.541 274.482 417.475 274.591C417.409 274.7 417.386 274.816 417.408 274.931L418.351 279.833ZM436.098 279.663L433.445 279.833L434.205 283.777L427.372 283.339L427.077 284.87L435.568 285.415C435.767 285.428 435.968 285.414 436.157 285.376C436.346 285.338 436.517 285.276 436.659 285.194C436.8 285.112 436.908 285.013 436.974 284.904C437.04 284.795 437.063 284.679 437.041 284.564L436.098 279.663Z" fill="#5CFFF5"/>
<path d="M438.318 276.585L417.564 284.209L416.131 282.909L436.885 275.285L438.318 276.585Z" fill="#5CFFF5"/>
<path d="M373.944 169.678C375.988 168.498 378.466 167.904 381.377 167.897C384.288 167.889 386.779 168.483 388.849 169.678C386.779 170.873 384.295 171.471 381.397 171.471C378.498 171.471 376.014 170.873 373.944 169.678ZM378.33 161.006C379.21 160.498 380.232 160.371 381.397 160.625C380.983 159.938 381.203 159.348 382.056 158.855C382.626 158.526 383.324 158.362 384.153 158.362C384.981 158.362 385.679 158.526 386.249 158.855C386.689 159.109 386.947 159.407 387.025 159.751L387.18 159.661C387.75 159.333 388.442 159.165 389.257 159.157C390.072 159.15 390.764 159.31 391.334 159.639C391.903 159.968 392.181 160.367 392.168 160.838C392.155 161.309 391.864 161.708 391.295 162.037L391.14 162.126C391.761 162.186 392.278 162.336 392.692 162.575C393.262 162.903 393.546 163.307 393.546 163.785C393.546 164.263 393.262 164.666 392.692 164.995C391.838 165.488 390.816 165.615 389.626 165.376C390.066 166.048 389.846 166.638 388.966 167.146C388.397 167.475 387.704 167.635 386.889 167.628C386.074 167.62 385.382 167.452 384.812 167.124C384.373 166.87 384.101 166.578 383.997 166.25L383.842 166.339C383.273 166.668 382.587 166.832 381.785 166.832C380.983 166.832 380.297 166.668 379.727 166.339C379.158 166.011 378.874 165.615 378.874 165.152C378.874 164.689 379.158 164.293 379.727 163.964L379.883 163.874C379.288 163.8 378.783 163.643 378.369 163.404C377.8 163.075 377.508 162.675 377.496 162.205C377.483 161.734 377.761 161.335 378.33 161.006ZM387.607 161.79C387.038 161.462 386.346 161.301 385.531 161.309C384.715 161.316 384.023 161.484 383.454 161.813C382.885 162.141 382.6 162.537 382.6 163C382.6 163.464 382.885 163.859 383.454 164.188C384.023 164.517 384.709 164.681 385.511 164.681C386.313 164.681 386.999 164.517 387.568 164.188C388.138 163.859 388.429 163.46 388.442 162.989C388.455 162.519 388.177 162.119 387.607 161.79ZM373.944 161.073C376.014 162.268 377.043 163.706 377.03 165.387C377.017 167.068 375.988 168.498 373.944 169.678C371.874 168.483 370.838 167.049 370.838 165.376C370.838 163.703 371.874 162.268 373.944 161.073Z" fill="#5CFFF5"/>
<g filter="url(#filter0_f)">
<circle r="3.26295" transform="matrix(0.866044 0.499967 -0.866044 0.499967 303.453 291.367)" fill="#D7FFFD"/>
</g>
<g filter="url(#filter1_f)">
<circle r="3.26295" transform="matrix(0.866044 0.499967 -0.866044 0.499967 329.537 276.309)" fill="#D7FFFD"/>
</g>
<g filter="url(#filter2_f)">
<circle r="3.26295" transform="matrix(0.866044 0.499967 -0.866044 0.499967 421.27 329.265)" fill="#D7FFFD"/>
</g>
<g filter="url(#filter3_f)">
<circle r="3.26295" transform="matrix(0.866044 0.499967 -0.866044 0.499967 375.188 249.956)" fill="#D7FFFD"/>
</g>
<g filter="url(#filter4_f)">
<circle r="3.26295" transform="matrix(0.866044 0.499967 -0.866044 0.499967 453.006 205.03)" fill="#D7FFFD"/>
</g>
<g filter="url(#filter5_f)">
<circle r="3.26295" transform="matrix(0.866044 0.499967 -0.866044 0.499967 498.221 178.929)" fill="#D7FFFD"/>
</g>
<g filter="url(#filter6_f)">
<circle r="3.26295" transform="matrix(0.866044 0.499967 -0.866044 0.499967 319.539 75.776)" fill="#D7FFFD"/>
</g>
<g filter="url(#filter7_f)">
<circle r="3.26295" transform="matrix(0.866044 0.499967 -0.866044 0.499967 233.459 125.47)" fill="#D7FFFD"/>
</g>
<g filter="url(#filter8_f)">
<circle r="3.26295" transform="matrix(0.866044 0.499967 -0.866044 0.499967 180.855 155.838)" fill="#D7FFFD"/>
</g>
<g filter="url(#filter9_f)">
<circle r="3.26295" transform="matrix(0.866044 0.499967 -0.866044 0.499967 124.771 188.215)" fill="#D7FFFD"/>
</g>
<g filter="url(#filter10_f)">
<circle r="3.26295" transform="matrix(0.866044 0.499967 -0.866044 0.499967 151.727 203.776)" fill="#D7FFFD"/>
</g>
<circle r="19.3307" transform="matrix(0.866044 0.499967 -0.866044 0.499967 226.068 180.936)" stroke="#5CFFF5" stroke-width="2"/>
<circle r="19.3307" transform="matrix(0.866044 0.499967 -0.866044 0.499967 299.105 163.87)" stroke="#5CFFF5" stroke-width="2"/>
<circle r="19.3307" transform="matrix(0.866044 0.499967 -0.866044 0.499967 382.143 164.623)" stroke="#5CFFF5" stroke-width="2"/>
<circle r="19.3307" transform="matrix(0.866044 0.499967 -0.866044 0.499967 504.307 235.148)" stroke="#5CFFF5" stroke-width="2"/>
<circle r="19.3307" transform="matrix(0.866044 0.499967 -0.866044 0.499967 426.922 279.822)" stroke="#5CFFF5" stroke-width="2"/>
<circle r="19.3307" transform="matrix(0.866044 0.499967 -0.866044 0.499967 508.654 278.316)" stroke="#5CFFF5" stroke-width="2"/>
<circle r="19.3307" transform="matrix(0.866044 0.499967 -0.866044 0.499967 106.078 229.626)" stroke="#5CFFF5" stroke-width="2"/>
<circle r="19.3307" transform="matrix(0.866044 0.499967 -0.866044 0.499967 137.379 129.737)" stroke="#5CFFF5" stroke-width="2"/>
<defs>
<filter id="filter0_f" x="295.457" y="285.06" width="15.9927" height="12.6142" filterUnits="userSpaceOnUse" color-interpolation-filters="sRGB">
<feFlood flood-opacity="0" result="BackgroundImageFix"/>
<feBlend mode="normal" in="SourceGraphic" in2="BackgroundImageFix" result="shape"/>
<feGaussianBlur stdDeviation="2" result="effect1_foregroundBlur"/>
</filter>
<filter id="filter1_f" x="321.541" y="270.002" width="15.9927" height="12.6142" filterUnits="userSpaceOnUse" color-interpolation-filters="sRGB">
<feFlood flood-opacity="0" result="BackgroundImageFix"/>
<feBlend mode="normal" in="SourceGraphic" in2="BackgroundImageFix" result="shape"/>
<feGaussianBlur stdDeviation="2" result="effect1_foregroundBlur"/>
</filter>
<filter id="filter2_f" x="413.273" y="322.958" width="15.9927" height="12.6142" filterUnits="userSpaceOnUse" color-interpolation-filters="sRGB">
<feFlood flood-opacity="0" result="BackgroundImageFix"/>
<feBlend mode="normal" in="SourceGraphic" in2="BackgroundImageFix" result="shape"/>
<feGaussianBlur stdDeviation="2" result="effect1_foregroundBlur"/>
</filter>
<filter id="filter3_f" x="367.191" y="243.649" width="15.9927" height="12.6142" filterUnits="userSpaceOnUse" color-interpolation-filters="sRGB">
<feFlood flood-opacity="0" result="BackgroundImageFix"/>
<feBlend mode="normal" in="SourceGraphic" in2="BackgroundImageFix" result="shape"/>
<feGaussianBlur stdDeviation="2" result="effect1_foregroundBlur"/>
</filter>
<filter id="filter4_f" x="445.01" y="198.723" width="15.9927" height="12.6142" filterUnits="userSpaceOnUse" color-interpolation-filters="sRGB">
<feFlood flood-opacity="0" result="BackgroundImageFix"/>
<feBlend mode="normal" in="SourceGraphic" in2="BackgroundImageFix" result="shape"/>
<feGaussianBlur stdDeviation="2" result="effect1_foregroundBlur"/>
</filter>
<filter id="filter5_f" x="490.225" y="172.621" width="15.9927" height="12.6142" filterUnits="userSpaceOnUse" color-interpolation-filters="sRGB">
<feFlood flood-opacity="0" result="BackgroundImageFix"/>
<feBlend mode="normal" in="SourceGraphic" in2="BackgroundImageFix" result="shape"/>
<feGaussianBlur stdDeviation="2" result="effect1_foregroundBlur"/>
</filter>
<filter id="filter6_f" x="311.543" y="69.469" width="15.9927" height="12.6142" filterUnits="userSpaceOnUse" color-interpolation-filters="sRGB">
<feFlood flood-opacity="0" result="BackgroundImageFix"/>
<feBlend mode="normal" in="SourceGraphic" in2="BackgroundImageFix" result="shape"/>
<feGaussianBlur stdDeviation="2" result="effect1_foregroundBlur"/>
</filter>
<filter id="filter7_f" x="225.463" y="119.163" width="15.9927" height="12.6142" filterUnits="userSpaceOnUse" color-interpolation-filters="sRGB">
<feFlood flood-opacity="0" result="BackgroundImageFix"/>
<feBlend mode="normal" in="SourceGraphic" in2="BackgroundImageFix" result="shape"/>
<feGaussianBlur stdDeviation="2" result="effect1_foregroundBlur"/>
</filter>
<filter id="filter8_f" x="172.859" y="149.531" width="15.9927" height="12.6142" filterUnits="userSpaceOnUse" color-interpolation-filters="sRGB">
<feFlood flood-opacity="0" result="BackgroundImageFix"/>
<feBlend mode="normal" in="SourceGraphic" in2="BackgroundImageFix" result="shape"/>
<feGaussianBlur stdDeviation="2" result="effect1_foregroundBlur"/>
</filter>
<filter id="filter9_f" x="116.775" y="181.908" width="15.9927" height="12.6142" filterUnits="userSpaceOnUse" color-interpolation-filters="sRGB">
<feFlood flood-opacity="0" result="BackgroundImageFix"/>
<feBlend mode="normal" in="SourceGraphic" in2="BackgroundImageFix" result="shape"/>
<feGaussianBlur stdDeviation="2" result="effect1_foregroundBlur"/>
</filter>
<filter id="filter10_f" x="143.73" y="197.469" width="15.9927" height="12.6142" filterUnits="userSpaceOnUse" color-interpolation-filters="sRGB">
<feFlood flood-opacity="0" result="BackgroundImageFix"/>
<feBlend mode="normal" in="SourceGraphic" in2="BackgroundImageFix" result="shape"/>
<feGaussianBlur stdDeviation="2" result="effect1_foregroundBlur"/>
</filter>
</defs>
</svg>
