<?xml version="1.0" encoding="utf-8"?>
<!-- Generator: Adobe Illustrator 24.0.1, SVG Export Plug-In . SVG Version: 6.00 Build 0)  -->
<svg version="1.1" id="Layer_1" xmlns="http://www.w3.org/2000/svg" xmlns:xlink="http://www.w3.org/1999/xlink" x="0px" y="0px"
	 viewBox="0 0 451.9 331.6" style="enable-background:new 0 0 451.9 331.6;" xml:space="preserve">
<style type="text/css">
	.st0{fill:#555555;}
	.st1{fill:#49D8CF;}
	.st2{fill:#5CFFF5;}
	.st3{fill:none;stroke:#5CFFF5;strokeWidth:2;}
	.st4{fill:#4B4B4B;}
	.st5{fill:#282828;}
	.st6{fill-rule:evenodd;clip-rule:evenodd;fill:#5CFFF5;}
	.st7{fill:#D7FFFD;}
</style>
<path class="st0" d="M319.2,79.9h37.9v15.3c0,4.4-3.6,8-8,8h-21.9c-4.4,0-8-3.6-8-8V79.9z"/>
<path class="st0" d="M323.4,99h28.9v3.1c0,4.4-3.6,8-8,8h-12.9c-4.4,0-8-3.6-8-8V99z"/>
<path class="st1" d="M338.2,0c25.1,0,45.5,20.4,45.5,45.5h-45.5V0z"/>
<path class="st2" d="M292.7,45.5c0-25.1,20.4-45.5,45.5-45.5v45.5H292.7z"/>
<circle class="st2" cx="348.4" cy="22.7" r="6.4"/>
<rect x="338.2" y="19" class="st2" width="7.6" height="7.6"/>
<path class="st1" d="M292.7,45.5h45.5V91C313.1,91,292.7,70.6,292.7,45.5z"/>
<circle class="st1" cx="315.4" cy="35.3" r="6.4"/>
<rect x="311.7" y="37.9" class="st1" width="7.6" height="7.6"/>
<path class="st2" d="M338.2,45.5h45.5c0,25.1-20.4,45.5-45.5,45.5V45.5z"/>
<circle class="st2" cx="328" cy="68.2" r="6.4"/>
<rect x="330.6" y="64.4" class="st2" width="7.6" height="7.6"/>
<circle class="st1" cx="360.9" cy="55.7" r="6.4"/>
<rect x="357.1" y="45.5" class="st1" width="7.6" height="7.6"/>
<line class="st3" x1="43.4" y1="188" x2="221.6" y2="290.9"/>
<line class="st3" x1="239" y1="75" x2="417.2" y2="177.9"/>
<line class="st3" x1="248.6" y1="275.3" x2="340.7" y2="328.5"/>
<line class="st3" x1="293.8" y1="249.2" x2="328.6" y2="269.3"/>
<line class="st3" x1="319.4" y1="174.2" x2="406.4" y2="224.4"/>
<line class="st3" x1="72.9" y1="139.8" x2="126.8" y2="170.9"/>
<line class="st3" x1="152.5" y1="125" x2="201.2" y2="153.1"/>
<line class="st3" x1="417.2" y1="178.9" x2="221.6" y2="291.9"/>
<line class="st3" x1="410.7" y1="289.1" x2="340.7" y2="329.5"/>
<line class="st3" x1="239" y1="76" x2="43.4" y2="189"/>
<line class="st3" x1="70.3" y1="204.5" x2="43.4" y2="220.1"/>
<line class="st3" x1="337.2" y1="109.9" x2="337.2" y2="131.9"/>
<path class="st4" d="M159.9,243.2l21.6,12.5c3.8,2.2,3.8,5.8,0,8l-55.7,32.2c-3.8,2.2-10,2.2-13.9,0l-21.6-12.5
	c-3.8-2.2-3.8-5.8,0-8l55.7-32.2C149.8,241,156,241,159.9,243.2z"/>
<path class="st5" d="M159.4,244.2l20.3,11.7c3.8,2.2,3.8,5.8,0,8l-53.4,30.8c-3.8,2.2-10,2.2-13.9,0L92.1,283c-3.8-2.2-3.8-5.8,0-8
	l53.4-30.8C149.3,242,155.5,242,159.4,244.2z"/>
<path d="M97,282.8l15.8,9.1c0.2,0.1,0.2,0.3,0,0.4l0,0c-0.2,0.1-0.6,0.1-0.8,0l-15.8-9.1c-0.2-0.1-0.2-0.3,0-0.4l0,0
	C96.4,282.7,96.8,282.7,97,282.8z"/>
<path d="M161.3,247.5l12.6,7.3c0.2,0.1,0.2,0.3,0,0.4l0,0c-0.2,0.1-0.6,0.1-0.8,0l-12.6-7.3c-0.2-0.1-0.2-0.3,0-0.4l0,0
	C160.8,247.4,161.1,247.4,161.3,247.5z"/>
<path class="st2" d="M27.2,232.8c0.6-0.3,1.3-0.6,1.9-0.9c0.6-0.3,1.1-0.7,1.6-1.1l2.9,1.7c-0.4,0.4-0.9,0.8-1.5,1.1
	c-0.6,0.3-1.3,0.6-2,0.9L27.2,232.8z M20.8,234.7c1.5-0.3,2.9-0.6,4.3-1.1l2.6,1.5C25.4,235.5,22.9,235.3,20.8,234.7z M25.4,231.8
	l-4.1-2.3c0.5-0.4,1-0.7,1.6-1.1c0.6-0.3,1.2-0.6,1.9-0.9l4.1,2.3c-0.5,0.4-1,0.7-1.6,1.1C26.7,231.2,26.1,231.5,25.4,231.8z
	 M18.2,233.6c0.3-1,0.9-2,1.8-2.9l3.3,1.9C21.7,233.1,20,233.4,18.2,233.6z M25.1,225.6l-2.5-1.5c2.3-0.4,4.7-0.2,6.9,0.4
	C27.9,224.8,26.5,225.2,25.1,225.6z M15.6,228.2l2.5,1.5c-0.8,0.8-1.4,1.6-1.9,2.5C15.2,230.9,15,229.5,15.6,228.2z M16.6,226.7
	c0.4-0.4,0.9-0.8,1.5-1.1c0.6-0.3,1.3-0.6,2-0.9l2.9,1.7c-0.6,0.3-1.3,0.6-1.9,0.9c-0.6,0.3-1.1,0.7-1.6,1.1L16.6,226.7z M32,225.6
	c-0.3,1-0.9,2-1.8,3l-3.3-1.9C28.5,226.1,30.3,225.8,32,225.6z M34.6,231.1l-2.6-1.5c0.8-0.8,1.4-1.6,1.9-2.5
	C35,228.4,35.2,229.8,34.6,231.1z M33.8,224.6c-4.8-2.8-12.6-2.8-17.4,0c-2.3,1.3-3.6,3.1-3.6,5c0,0.9,0.3,1.9,0.9,2.7
	c0.6,0.9,1.5,1.6,2.7,2.3c2.3,1.3,5.4,2.1,8.7,2.1c3.3,0,6.4-0.7,8.7-2.1c1.1-0.7,2-1.4,2.7-2.3c0.6-0.9,0.9-1.8,0.9-2.7
	c0-0.9-0.3-1.9-0.9-2.7C35.9,226,34.9,225.3,33.8,224.6z"/>
<path class="st2" d="M433.8,280.8l-2.8-1.6c0.6-0.8,0.4-1.8-0.7-2.4c-1.1-0.7-2.8-0.8-4.2-0.4l-2.8-1.6c-0.3-0.2-1.7-1.1,0-2
	l0.9-0.5c1.6-0.9,3.1-0.2,3.5,0l8.9,5.1c-0.6,0.8-0.4,1.8,0.7,2.4c0.7,0.4,1.6,0.6,2.6,0.6c1,0,1.9-0.2,2.6-0.6
	c0.7-0.4,1.1-0.9,1.1-1.5c0-0.6-0.4-1.1-1.1-1.5c-1.1-0.7-2.8-0.8-4.2-0.4l-8.9-5.1c-1.4-0.8-4.4-1.5-7,0l-0.9,0.5
	c-2.6,1.5-1.4,3.2,0,4l2.8,1.6c-0.6,0.8-0.4,1.8,0.7,2.4c1.1,0.7,2.8,0.8,4.2,0.4l2.8,1.6c0.3,0.2,1.7,1.1,0,2l-0.9,0.5
	c-1.6,0.9-3.1,0.2-3.5,0l-8.9-5.1c0.6-0.8,0.4-1.8-0.7-2.4c-0.7-0.4-1.6-0.6-2.6-0.6s-1.9,0.2-2.6,0.6c-0.7,0.4-1.1,0.9-1.1,1.5
	c0,0.6,0.4,1.1,1.1,1.5c1.1,0.7,2.8,0.8,4.2,0.4l8.9,5.1c1.4,0.8,4.4,1.5,7,0l0.9-0.5C436.3,283.4,435.2,281.6,433.8,280.8z
	 M440.7,277.8c0.2,0.1,0.4,0.3,0.4,0.5c0,0.2-0.1,0.4-0.4,0.5c-0.2,0.1-0.5,0.2-0.9,0.2s-0.6-0.1-0.9-0.2c-0.2-0.1-0.4-0.3-0.4-0.5
	c0-0.2,0.1-0.4,0.4-0.5c0.2-0.1,0.5-0.2,0.9-0.2S440.5,277.7,440.7,277.8z M414.6,278.8c-0.2-0.1-0.4-0.3-0.4-0.5
	c0-0.2,0.1-0.4,0.4-0.5c0.2-0.1,0.5-0.2,0.9-0.2c0.3,0,0.6,0.1,0.9,0.2c0.2,0.1,0.4,0.3,0.4,0.5c0,0.2-0.1,0.4-0.4,0.5
	c-0.2,0.1-0.5,0.2-0.9,0.2C415.2,279,414.9,279,414.6,278.8z"/>
<path class="st2" d="M135,270.1c1.5,0.9,2.3,2,2.3,3.2l-2.6,0c0-0.8-0.5-1.5-1.5-2.1c-1-0.6-2.4-0.9-3.7-0.9l0-1.5
	c1,0,2.1,0.1,3,0.3C133.4,269.3,134.3,269.6,135,270.1z M129.5,265.7c3.5,0,6.8,0.8,9.3,2.2s3.8,3.3,3.8,5.3l-2.6,0
	c0-1.6-1.1-3.1-3-4.3c-2-1.1-4.6-1.8-7.4-1.8L129.5,265.7z M146.5,269.3c0.9,1.3,1.3,2.6,1.3,4l-2.6,0c0-2.4-1.6-4.7-4.6-6.4
	c-3-1.7-6.9-2.6-11.1-2.6l0-1.5c2.4,0,4.8,0.3,7,0.8c2.2,0.5,4.2,1.3,5.9,2.3C144.2,266.8,145.6,267.9,146.5,269.3L146.5,269.3z
	 M129.5,272.2c0.2-0.1,0.6-0.2,0.9-0.2c0.3,0,0.7,0.1,0.9,0.2c0.2,0.1,0.4,0.3,0.4,0.5c0,0.2-0.1,0.4-0.4,0.5
	c-0.2,0.1-0.6,0.2-0.9,0.2c-0.3,0-0.7-0.1-0.9-0.2c-0.2-0.1-0.4-0.3-0.4-0.5C129.1,272.6,129.2,272.4,129.5,272.2z"/>
<path class="st2" d="M62.2,134.1c0.3-0.1,0.6-0.3,0.9-0.5c0.3-0.2,0.5-0.3,0.8-0.5l3.3,0.2c0.3,0,0.6-0.1,0.7-0.3l1.3-2.7
	c0.1-0.2-0.1-0.3-0.3-0.4l-3-0.7c-0.1-0.5-0.3-0.9-0.6-1.3l2-1.5c0.1-0.1,0.1-0.2,0.1-0.2c0-0.1-0.1-0.2-0.2-0.2l-3.5-2
	c-0.2-0.1-0.6-0.1-0.8,0l-2.6,1.1c-0.7-0.2-1.5-0.3-2.3-0.4l-1.3-1.8c-0.1-0.2-0.4-0.2-0.7-0.2l-4.7,0.7c-0.3,0-0.5,0.2-0.5,0.4
	l0.4,1.9c-0.3,0.1-0.6,0.3-0.9,0.5s-0.5,0.3-0.8,0.5l-3.3-0.2c-0.3,0-0.6,0.1-0.7,0.3l-1.3,2.7c-0.1,0.2,0.1,0.3,0.3,0.4l3,0.7
	c0.1,0.5,0.3,0.9,0.6,1.3l-2,1.5c-0.2,0.1-0.2,0.3,0.1,0.5l3.5,2c0.2,0.1,0.6,0.1,0.8,0l2.6-1.1c0.7,0.2,1.5,0.3,2.3,0.4l1.3,1.8
	c0.1,0.2,0.4,0.2,0.7,0.2l4.7-0.7c0.3,0,0.5-0.2,0.5-0.4L62.2,134.1z M53.6,131.6c-1.7-1-1.7-2.5,0-3.5c1.7-1,4.4-1,6.1,0
	c1.7,1,1.7,2.5,0,3.5C58,132.6,55.2,132.6,53.6,131.6z"/>
<path class="st2" d="M439,234.1l-13.9-8c-1-0.6-2.5-0.6-3.5,0l-15.7,9h7l12.2,7c1,0.6,2.5,0.6,3.5,0l10.4-6
	C439.9,235.6,439.9,234.7,439,234.1z"/>
<path class="st6" d="M219.1,163.1l0.3,0.2c2.6-0.9,6.1-0.7,8.4,0.6l2.4,1.4c1.3,0.7,2,1.8,2,2.8c0,1.1-0.7,2.1-2,2.8
	c-1.3,0.7-3,1.2-4.9,1.2c-1.8,0-3.6-0.4-4.9-1.2l-2.4-1.4c-1.1-0.6-1.8-1.4-2-2.3c-0.2-0.9,0.1-1.8,0.9-2.5l-0.3-0.2
	c-1.3,0.4-2.9,0.6-4.4,0.5c-1.5-0.1-2.9-0.5-4-1.1l-2.4-1.4c-1.3-0.7-2-1.8-2-2.8c0-1.1,0.7-2.1,2-2.8c1.3-0.7,3-1.2,4.9-1.2
	c1.8,0,3.6,0.4,4.9,1.2l2.4,1.4c1.1,0.6,1.8,1.4,2,2.3C220.2,161.5,219.9,162.4,219.1,163.1z M216.5,161.7c0.2-0.3,0.2-0.7,0-1
	c-0.2-0.3-0.5-0.7-0.9-0.9l-2.4-1.4c-0.6-0.4-1.5-0.6-2.4-0.6c-0.9,0-1.8,0.2-2.4,0.6c-0.6,0.4-1,0.9-1,1.4c0,0.5,0.4,1,1,1.4
	l2.4,1.4c0.4,0.3,1,0.4,1.6,0.5c0.6,0.1,1.2,0.1,1.8,0c-0.2-0.2-0.3-0.4-0.2-0.6c0-0.2,0.2-0.4,0.5-0.6c0.3-0.2,0.6-0.3,1-0.3
	C215.8,161.5,216.2,161.5,216.5,161.7z M219.3,166c-0.2,0.3-0.2,0.7,0,1c0.2,0.3,0.5,0.7,0.9,0.9l2.4,1.4c0.6,0.4,1.5,0.6,2.4,0.6
	c0.9,0,1.8-0.2,2.4-0.6s1-0.9,1-1.4c0-0.5-0.4-1-1-1.4l-2.4-1.4c-0.4-0.3-1-0.4-1.6-0.5c-0.6-0.1-1.2-0.1-1.8,0
	c0.2,0.2,0.3,0.4,0.2,0.6c0,0.2-0.2,0.4-0.5,0.6c-0.3,0.2-0.6,0.3-1,0.3C220,166.2,219.6,166.1,219.3,166L219.3,166z"/>
<path class="st2" d="M152.1,185c1-0.6,1-1.5,0-2l-0.9-0.5l2.6-1.5c2.4-1.4,2.4-3.6,0-5c-2.4-1.4-6.3-1.4-8.7,0l-2.6,1.5l-0.9-0.5
	c-1-0.6-2.5-0.6-3.5,0l-7,4c-1,0.6-1,1.5,0,2l10.4,6c1,0.6,2.5,0.6,3.5,0L152.1,185z M146.8,176.9c1.4-0.8,3.8-0.8,5.2,0
	c1.4,0.8,1.4,2.2,0,3l-2.6,1.5l-5.2-3L146.8,176.9z"/>
<path class="st2" d="M336.9,279.8l2.7-0.2l-0.8-3.9l6.8,0.4l0.3-1.5l-8.5-0.5c-0.2,0-0.4,0-0.6,0c-0.2,0-0.4,0.1-0.5,0.2
	c-0.1,0.1-0.3,0.2-0.3,0.3c-0.1,0.1-0.1,0.2-0.1,0.3L336.9,279.8z M354.7,279.7l-2.7,0.2l0.8,3.9l-6.8-0.4l-0.3,1.5l8.5,0.5
	c0.2,0,0.4,0,0.6,0c0.2,0,0.4-0.1,0.5-0.2c0.1-0.1,0.2-0.2,0.3-0.3c0.1-0.1,0.1-0.2,0.1-0.3L354.7,279.7z"/>
<path class="st2" d="M356.9,276.6l-20.8,7.6l-1.4-1.3l20.8-7.6L356.9,276.6z"/>
<path class="st2" d="M292.5,169.7c2-1.2,4.5-1.8,7.4-1.8c2.9,0,5.4,0.6,7.5,1.8c-2.1,1.2-4.6,1.8-7.5,1.8
	C297.1,171.5,294.6,170.9,292.5,169.7z M296.9,161c0.9-0.5,1.9-0.6,3.1-0.4c-0.4-0.7-0.2-1.3,0.7-1.8c0.6-0.3,1.3-0.5,2.1-0.5
	c0.8,0,1.5,0.2,2.1,0.5c0.4,0.3,0.7,0.6,0.8,0.9l0.2-0.1c0.6-0.3,1.3-0.5,2.1-0.5c0.8,0,1.5,0.2,2.1,0.5c0.6,0.3,0.8,0.7,0.8,1.2
	c0,0.5-0.3,0.9-0.9,1.2l-0.2,0.1c0.6,0.1,1.1,0.2,1.6,0.4c0.6,0.3,0.9,0.7,0.9,1.2s-0.3,0.9-0.9,1.2c-0.9,0.5-1.9,0.6-3.1,0.4
	c0.4,0.7,0.2,1.3-0.7,1.8c-0.6,0.3-1.3,0.5-2.1,0.5c-0.8,0-1.5-0.2-2.1-0.5c-0.4-0.3-0.7-0.5-0.8-0.9l-0.2,0.1
	c-0.6,0.3-1.3,0.5-2.1,0.5s-1.5-0.2-2.1-0.5c-0.6-0.3-0.9-0.7-0.9-1.2c0-0.5,0.3-0.9,0.9-1.2l0.2-0.1c-0.6-0.1-1.1-0.2-1.5-0.5
	c-0.6-0.3-0.9-0.7-0.9-1.2C296.1,161.7,296.4,161.3,296.9,161z M306.2,161.8c-0.6-0.3-1.3-0.5-2.1-0.5c-0.8,0-1.5,0.2-2.1,0.5
	c-0.6,0.3-0.9,0.7-0.9,1.2c0,0.5,0.3,0.9,0.9,1.2c0.6,0.3,1.3,0.5,2.1,0.5c0.8,0,1.5-0.2,2.1-0.5c0.6-0.3,0.9-0.7,0.9-1.2
	C307.1,162.5,306.8,162.1,306.2,161.8z M292.5,161.1c2.1,1.2,3.1,2.6,3.1,4.3s-1,3.1-3.1,4.3c-2.1-1.2-3.1-2.6-3.1-4.3
	C289.4,163.7,290.5,162.3,292.5,161.1z"/>
<g>
	<ellipse class="st7" cx="222.1" cy="291.4" rx="4" ry="2.3"/>
</g>
<g>
	<ellipse class="st7" cx="248.1" cy="276.3" rx="4" ry="2.3"/>
</g>
<g>
	<ellipse class="st7" cx="339.9" cy="329.3" rx="4" ry="2.3"/>
</g>
<g>
	<ellipse class="st7" cx="293.8" cy="250" rx="4" ry="2.3"/>
</g>
<g>
	<ellipse class="st7" cx="371.6" cy="205" rx="4" ry="2.3"/>
</g>
<g>
	<ellipse class="st7" cx="416.8" cy="178.9" rx="4" ry="2.3"/>
</g>
<g>
	<ellipse class="st7" cx="238.1" cy="75.8" rx="4" ry="2.3"/>
</g>
<g>
	<ellipse class="st7" cx="152.1" cy="125.5" rx="4" ry="2.3"/>
</g>
<g>
	<ellipse class="st7" cx="99.5" cy="155.8" rx="4" ry="2.3"/>
</g>
<g>
	<ellipse class="st7" cx="43.4" cy="188.2" rx="4" ry="2.3"/>
</g>
<g>
	<ellipse class="st7" cx="70.3" cy="203.8" rx="4" ry="2.3"/>
</g>
<ellipse class="st3" cx="144.7" cy="180.9" rx="23.7" ry="13.7"/>
<ellipse class="st3" cx="217.7" cy="163.9" rx="23.7" ry="13.7"/>
<ellipse class="st3" cx="300.7" cy="164.6" rx="23.7" ry="13.7"/>
<ellipse class="st3" cx="422.9" cy="235.1" rx="23.7" ry="13.7"/>
<ellipse class="st3" cx="345.5" cy="279.8" rx="23.7" ry="13.7"/>
<ellipse class="st3" cx="427.3" cy="278.3" rx="23.7" ry="13.7"/>
<ellipse class="st3" cx="24.7" cy="229.6" rx="23.7" ry="13.7"/>
<ellipse class="st3" cx="56" cy="129.7" rx="23.7" ry="13.7"/>
</svg>
