<svg width="154" height="159" viewBox="0 0 154 159" fill="none" xmlns="http://www.w3.org/2000/svg">
<g filter="url(#filter0_d)">
<g filter="url(#filter1_i)">
<path d="M77.5951 112.474L10.2446 58.4983L143.99 58.4983L77.5951 112.474Z" fill="#F5F8FF"/>
</g>
<g filter="url(#filter2_i)">
<path d="M76.6359 5.00007L143.99 58.4983L10.2441 58.4983L76.6359 5.00007Z" fill="#F5F8FF"/>
</g>
<path d="M76.6359 90.5017L143.99 144L10.2441 144L76.6359 90.5017Z" fill="#F0F0F0"/>
<g filter="url(#filter3_di)">
<path d="M83.5384 76.575C83.5384 74.2949 83.0254 72.4139 81.9993 70.9319C80.9733 69.4498 79.3773 68.7088 77.2113 68.7088C74.5892 68.7088 72.5087 69.7348 70.9696 71.7869C69.4306 73.8389 68.6611 76.347 68.6611 79.311C68.6611 80.223 68.7466 81.1351 68.9176 82.0471C69.0886 82.9591 69.3736 83.7856 69.7726 84.5266C70.2286 85.2106 70.8271 85.7807 71.5681 86.2367C72.3662 86.6927 73.3637 86.9207 74.5607 86.9207C76.3277 86.9207 77.7813 86.6072 78.9213 85.9802C80.1183 85.3531 81.0588 84.5551 81.7428 83.5861C82.4268 82.5601 82.8829 81.4486 83.1109 80.2515C83.3959 78.9975 83.5384 77.772 83.5384 76.575ZM91.49 78.8835C91.319 79.6815 91.148 80.6221 90.977 81.7051C90.806 82.7881 90.7205 83.7286 90.7205 84.5266C90.7205 85.1536 90.863 85.7237 91.148 86.2367C91.49 86.6927 92.117 86.9207 93.0291 86.9207C93.9411 86.9207 94.8246 86.6927 95.6796 86.2367C96.5916 85.7237 97.3896 84.9541 98.0737 83.9281C98.7577 82.8451 99.2992 81.5056 99.6982 79.9095C100.154 78.3135 100.382 76.404 100.382 74.1809C100.382 70.7609 99.8122 67.7683 98.6722 65.2033C97.5891 62.5812 96.0501 60.3867 94.0551 58.6196C92.117 56.8526 89.78 55.5416 87.0439 54.6866C84.3079 53.7745 81.3153 53.3185 78.0663 53.3185C74.5322 53.3185 71.3116 53.917 68.4046 55.1141C65.4975 56.3111 62.9895 57.9926 60.8804 60.1587C58.8284 62.3247 57.2324 64.8897 56.0923 67.8538C54.9523 70.8179 54.3823 74.0384 54.3823 77.5155C54.3823 81.2776 55.0093 84.6406 56.2633 87.6047C57.5174 90.5687 59.2559 93.0768 61.4789 95.1288C63.759 97.1809 66.438 98.7769 69.5161 99.9169C72.5942 101 75.9287 101.541 79.5198 101.541C82.7689 101.541 85.7329 101.085 88.412 100.173C91.148 99.2614 93.5706 97.9789 95.6796 96.3259H105.085C102.007 100.544 98.1592 103.765 93.5421 105.988C88.982 108.154 84.0799 109.237 78.8358 109.237C74.2757 109.237 69.9721 108.467 65.925 106.928C61.935 105.332 58.4294 103.137 55.4083 100.344C52.3873 97.5514 49.9932 94.2168 48.2262 90.3407C46.5161 86.4077 45.6611 82.1326 45.6611 77.5155C45.6611 72.9554 46.5161 68.7373 48.2262 64.8612C49.9362 60.9852 52.2733 57.6221 55.2373 54.7721C58.2014 51.922 61.6499 49.699 65.583 48.1029C69.5731 46.4499 73.8197 45.6234 78.3228 45.6234C82.0848 45.6234 85.7614 46.2504 89.3525 47.5044C93.0006 48.7014 96.2496 50.497 99.0997 52.891C101.95 55.2851 104.23 58.2491 105.94 61.7832C107.707 65.2603 108.59 69.2503 108.59 73.7534C108.59 76.7745 108.22 79.3965 107.479 81.6196C106.795 83.8426 105.883 85.7237 104.743 87.2627C103.66 88.8017 102.406 90.0557 100.981 91.0248C99.6127 91.9938 98.2162 92.7348 96.7911 93.2478C95.4231 93.7608 94.0836 94.1313 92.7726 94.3593C91.5185 94.5303 90.464 94.6158 89.609 94.6158C87.2149 94.6158 85.5049 94.1313 84.4789 93.1623C83.4529 92.1933 82.9114 91.1388 82.8544 89.9987H82.6834C81.5433 91.1388 80.1183 92.1933 78.4083 93.1623C76.6982 94.1313 74.4752 94.6158 71.7391 94.6158C69.9151 94.6158 68.2336 94.2738 66.6945 93.5898C65.2125 92.8488 63.93 91.8513 62.847 90.5972C61.7639 89.3432 60.9089 87.8327 60.2819 86.0657C59.7119 84.2986 59.4269 82.3606 59.4269 80.2515C59.4269 77.7435 59.8259 75.3495 60.6239 73.0694C61.4219 70.7324 62.5335 68.6803 63.9585 66.9133C65.4405 65.0893 67.2361 63.6642 69.3451 62.6382C71.4541 61.5552 73.8482 61.0137 76.5272 61.0137C78.8073 61.0137 80.6883 61.3842 82.1703 62.1252C83.7094 62.8662 84.9064 64.1202 85.7614 65.8873H85.9324L86.6164 62.0397H94.6536L91.49 78.8835Z" fill="#504DD2"/>
</g>
<path d="M10.2441 58.4983L77.8334 111.997L143.99 58.4983V144H10.2441V58.4983Z" fill="#F5F8FF"/>
</g>
<defs>
<filter id="filter0_d" x="0.244141" y="6.10352e-05" width="153.746" height="159" filterUnits="userSpaceOnUse" color-interpolation-filters="sRGB">
<feFlood flood-opacity="0" result="BackgroundImageFix"/>
<feColorMatrix in="SourceAlpha" type="matrix" values="0 0 0 0 0 0 0 0 0 0 0 0 0 0 0 0 0 0 127 0"/>
<feOffset dy="5"/>
<feGaussianBlur stdDeviation="5"/>
<feColorMatrix type="matrix" values="0 0 0 0 0 0 0 0 0 0 0 0 0 0 0 0 0 0 0.15 0"/>
<feBlend mode="normal" in2="BackgroundImageFix" result="effect1_dropShadow"/>
<feBlend mode="normal" in="SourceGraphic" in2="effect1_dropShadow" result="shape"/>
</filter>
<filter id="filter1_i" x="10.2441" y="56.4983" width="133.746" height="55.9759" filterUnits="userSpaceOnUse" color-interpolation-filters="sRGB">
<feFlood flood-opacity="0" result="BackgroundImageFix"/>
<feBlend mode="normal" in="SourceGraphic" in2="BackgroundImageFix" result="shape"/>
<feColorMatrix in="SourceAlpha" type="matrix" values="0 0 0 0 0 0 0 0 0 0 0 0 0 0 0 0 0 0 127 0" result="hardAlpha"/>
<feOffset dy="-2"/>
<feGaussianBlur stdDeviation="7"/>
<feComposite in2="hardAlpha" operator="arithmetic" k2="-1" k3="1"/>
<feColorMatrix type="matrix" values="0 0 0 0 0 0 0 0 0 0 0 0 0 0 0 0 0 0 0.1 0"/>
<feBlend mode="normal" in2="shape" result="effect1_innerShadow"/>
</filter>
<filter id="filter2_i" x="10.2441" y="3.00006" width="133.746" height="55.4983" filterUnits="userSpaceOnUse" color-interpolation-filters="sRGB">
<feFlood flood-opacity="0" result="BackgroundImageFix"/>
<feBlend mode="normal" in="SourceGraphic" in2="BackgroundImageFix" result="shape"/>
<feColorMatrix in="SourceAlpha" type="matrix" values="0 0 0 0 0 0 0 0 0 0 0 0 0 0 0 0 0 0 127 0" result="hardAlpha"/>
<feOffset dy="-2"/>
<feGaussianBlur stdDeviation="4.5"/>
<feComposite in2="hardAlpha" operator="arithmetic" k2="-1" k3="1"/>
<feColorMatrix type="matrix" values="0 0 0 0 0 0 0 0 0 0 0 0 0 0 0 0 0 0 0.04 0"/>
<feBlend mode="normal" in2="shape" result="effect1_innerShadow"/>
</filter>
<filter id="filter3_di" x="44.6611" y="45.6234" width="64.9292" height="65.6132" filterUnits="userSpaceOnUse" color-interpolation-filters="sRGB">
<feFlood flood-opacity="0" result="BackgroundImageFix"/>
<feColorMatrix in="SourceAlpha" type="matrix" values="0 0 0 0 0 0 0 0 0 0 0 0 0 0 0 0 0 0 127 0"/>
<feOffset dy="1"/>
<feGaussianBlur stdDeviation="0.5"/>
<feColorMatrix type="matrix" values="0 0 0 0 0 0 0 0 0 0 0 0 0 0 0 0 0 0 0.3 0"/>
<feBlend mode="normal" in2="BackgroundImageFix" result="effect1_dropShadow"/>
<feBlend mode="normal" in="SourceGraphic" in2="effect1_dropShadow" result="shape"/>
<feColorMatrix in="SourceAlpha" type="matrix" values="0 0 0 0 0 0 0 0 0 0 0 0 0 0 0 0 0 0 127 0" result="hardAlpha"/>
<feOffset dy="2"/>
<feGaussianBlur stdDeviation="1.5"/>
<feComposite in2="hardAlpha" operator="arithmetic" k2="-1" k3="1"/>
<feColorMatrix type="matrix" values="0 0 0 0 1 0 0 0 0 1 0 0 0 0 1 0 0 0 0.55 0"/>
<feBlend mode="normal" in2="shape" result="effect2_innerShadow"/>
</filter>
</defs>
</svg>
